<svg width="120%" viewBox="0 0 42 48">
<defs>
    <style>
      .service-icons {
        fill: #1387e4;
        fill-rule: evenodd;
      }
    </style>
  </defs>
  <path id="Forma_1" data-name="Forma 1" class="service-icons" d="M776,1262h-2.522a8.6,8.6,0,0,0-.362-0.87l1.784-1.79a1,1,0,0,0,0-1.41l-2.829-2.83a1,1,0,0,0-1.414,0l-1.784,1.78q-0.428-.2-0.873-0.36V1254a1,1,0,0,0-1-1h-4a1,1,0,0,0-1,1v2.52q-0.446.165-.873,0.36l-1.784-1.78a1,1,0,0,0-1.414,0l-2.829,2.83a1,1,0,0,0,0,1.41l1.784,1.79a8.372,8.372,0,0,0-.362.87H754a1,1,0,0,0-1,1v4a1,1,0,0,0,1,1h2.522a8.367,8.367,0,0,0,.361.87l-1.783,1.79a1,1,0,0,0,0,1.41l2.829,2.83a1,1,0,0,0,1.414,0l1.784-1.78q0.428,0.2.873,0.36V1276a1,1,0,0,0,1,1h4a1,1,0,0,0,1-1v-2.52c0.3-.11.589-0.23,0.873-0.36l1.784,1.78a1,1,0,0,0,1.414,0l2.829-2.83a1,1,0,0,0,0-1.41l-1.784-1.79a8.372,8.372,0,0,0,.362-0.87H776a1,1,0,0,0,1-1v-4A1,1,0,0,0,776,1262Zm-1,4h-2.261a1,1,0,0,0-.968.75,6.985,6.985,0,0,1-.745,1.8,1.008,1.008,0,0,0,.154,1.22l1.6,1.6-1.414,1.41-1.6-1.6a1.008,1.008,0,0,0-1.216-.16,6.6,6.6,0,0,1-1.8.75,1,1,0,0,0-.75.97V1275h-2v-2.26a1.012,1.012,0,0,0-.75-0.97,6.9,6.9,0,0,1-1.8-.74,1.006,1.006,0,0,0-1.216.15l-1.6,1.6-1.414-1.41,1.6-1.6a1.006,1.006,0,0,0,.154-1.22,6.985,6.985,0,0,1-.745-1.8,1,1,0,0,0-.968-0.75H755v-2h2.263a1,1,0,0,0,.968-0.75,6.985,6.985,0,0,1,.745-1.8,0.991,0.991,0,0,0-.154-1.21l-1.6-1.6,1.412-1.42,1.6,1.6a1.008,1.008,0,0,0,1.216.16,6.6,6.6,0,0,1,1.8-.75,1,1,0,0,0,.75-0.97V1255h2v2.26a0.993,0.993,0,0,0,.748.97,6.929,6.929,0,0,1,1.8.75,1.008,1.008,0,0,0,1.216-.16l1.6-1.6,1.415,1.41-1.6,1.6a1.008,1.008,0,0,0-.154,1.22,6.985,6.985,0,0,1,.745,1.8,1,1,0,0,0,.968.75H775v2Zm-10-5a4,4,0,1,0,4,4A4,4,0,0,0,765,1261Zm0,6a2,2,0,1,1,2-2A2,2,0,0,1,765,1267Zm-7,11v1.97c0,3.33-1.794,6.03-4,6.03s-4-2.7-4-6.03v-1.83a4.269,4.269,0,0,1,4-3.14v-2a6.258,6.258,0,0,0-5.97,4.76,0.986,0.986,0,0,0-.03.24v1.97c0,4.5,2.636,8.03,6,8.03s6-3.53,6-8.03V1278h-2Zm1,10a0.98,0.98,0,0,1-.242,0,1.883,1.883,0,0,1-1.758-2h-2c0,0.08,0,.15,0,0.23a3.886,3.886,0,0,0,4,3.77,3,3,0,0,1,3,3v8h2v-8A5,5,0,0,0,759,1288Zm-6-2h-2a1.922,1.922,0,0,1,0,.24,1.88,1.88,0,0,1-2,1.76,5,5,0,0,0-5,5v8h2v-8a3,3,0,0,1,3-3h0.229A3.883,3.883,0,0,0,753,1286Zm-5,8h2v7h-2v-7Zm10,0h2v7h-2v-7Zm23.97-16.24A6.258,6.258,0,0,0,776,1273v2a4.27,4.27,0,0,1,4,3.14v1.83c0,3.33-1.794,6.03-4,6.03s-4-2.7-4-6.03V1278h-2v1.97c0,4.5,2.636,8.03,6,8.03s6-3.53,6-8.03V1278A0.986,0.986,0,0,0,781.97,1277.76ZM781,1288a0.98,0.98,0,0,1-.242,0,1.883,1.883,0,0,1-1.758-2h-2c0,0.08,0,.15,0,0.23a3.886,3.886,0,0,0,4,3.77,3,3,0,0,1,3,3v8h2v-8A5,5,0,0,0,781,1288Zm-6-2h-2a1.922,1.922,0,0,1,0,.24,1.88,1.88,0,0,1-2,1.76,5,5,0,0,0-5,5v8h2v-8a3,3,0,0,1,3-3h0.229A3.883,3.883,0,0,0,775,1286Zm-5,8h2v7h-2v-7Zm10,0h2v7h-2v-7Zm-16-15h2v2h-2v-2Zm0,4h2v2h-2v-2Zm0,4h2v2h-2v-2Z" transform="translate(-744 -1253)"/>
</svg>
