<svg width="48" height="48" viewBox="0 0 48 48">
<defs>
    <style>
      .cls-1 {
        fill: #1387e4;
        fill-rule: evenodd;
      }
    </style>
  </defs>
  <path id="Forma_1" data-name="Forma 1" class="cls-1" d="M229.75,1295.09a0.94,0.94,0,1,0,.937.94A0.938,0.938,0,0,0,229.75,1295.09Zm13.125,0H233.5a0.94,0.94,0,0,0,0,1.88h9.375A0.94,0.94,0,0,0,242.875,1295.09ZM265,1265.18a0.948,0.948,0,0,0-.6-0.87l-26.252-10.63a2.794,2.794,0,0,0-1.834-.68,2.843,2.843,0,0,0-2.39,1.33l-16.473,10.06a0.947,0.947,0,0,0-.449.8v3.75a0.938,0.938,0,0,0,.938.94h0.937v4.68a0.938,0.938,0,0,0,.938.94h8.062a0.938,0.938,0,0,0,.937-0.94v-4.68h1.875v21.46h-2.812a2.823,2.823,0,0,0-2.813,2.82v5.9a0.938,0.938,0,0,0,.938.94h20.625a0.938,0.938,0,0,0,.937-0.94v-5.9a2.822,2.822,0,0,0-2.812-2.82h-2.813v-21.46h13.688v3.81a0.918,0.918,0,0,0,.275.66l1.6,1.6v5.62a2.811,2.811,0,1,0,3.482,3.85,0.938,0.938,0,1,0-1.7-.8,0.938,0.938,0,1,1-.849-1.34,0.938,0.938,0,0,0,.938-0.94v-6.39l1.6-1.6a0.918,0.918,0,0,0,.275-0.66v-3.81h2.812a0.938,0.938,0,0,0,.938-0.94v-3.76Zm-29.625-9.37a0.938,0.938,0,1,1,1.875,0v6.57h-1.875v-6.57Zm-0.938,8.44h5.625v6.41l-6.22-6.41h0.595Zm-0.595,19.31h6.22v6.41Zm4.941,7.78h-6.221v-6.4Zm-6.221-9.65v-6.41l6.221,6.41h-6.221Zm1.28-7.78h6.22v6.4Zm-1.28-1.88v-6.41l6.221,6.41h-6.221Zm0.938-15.24v5.59h-2l-9.241,1.27Zm-6.563,16.84H220.75v-3.75h6.187v3.75Zm-8.062-5.63v-1.99l11.812-1.62V1268H218.875Zm25.875,25.22a0.938,0.938,0,0,1,.937.94v4.97h-18.75v-4.97a0.939,0.939,0,0,1,.938-0.94H244.75Zm-3.674-30.84h-1.951v-6.28l18.906,7.66Zm18.3,10.92-0.938.94-0.937-.94v-3.42h1.875v3.42Zm3.75-5.3H241.937v-3.67l21.188,1.72V1268Z" transform="translate(-217 -1253)"/>
</svg>
