<svg viewBox="0 0 512.00049 512" width="120%">
    <path d="m494.933594 179.199219h17.066406v196.269531h-17.066406zm0 0" fill="#006DF0"/>
    <path d="m494.933594 392.535156h17.066406v17.066406h-17.066406zm0 0" fill="#006DF0"/>
    <path d="m0 128h17.066406v85.332031h-17.066406zm0 0" fill="#006DF0"/>
    <path d="m341.332031 0h17.066407v17.066406h-17.066407zm0 0" fill="#006DF0"/>
    <path d="m102.398438 0h221.867187v17.066406h-221.867187zm0 0" fill="#006DF0"/>
    <path d="m8.535156 512h409.597656c4.714844 0 8.535157-3.820312 8.535157-8.53125v-51.203125h42.664062c4.714844 0 8.535157-3.820313 8.535157-8.53125v-358.402344h17.066406c4.710937 0 8.535156-3.820312 8.535156-8.53125v-34.132812c0-4.714844-3.824219-8.535157-8.535156-8.535157h-477.867188c-4.710937 0-8.53125 3.820313-8.53125 8.535157v34.132812c0 4.710938 3.820313 8.53125 8.53125 8.53125h17.066406v153.601563h-25.597656c-4.714844 0-8.535156 3.820312-8.535156 8.535156v256c0 4.710938 3.820312 8.53125 8.535156 8.53125zm8.53125-17.066406v-17.066406h158.601563l17.066406 17.066406zm392.535156-34.132813h-162.132812c-2.265625 0-4.433594.898438-6.035156 2.5l-19.566406 19.566407v-197.734376l29.132812-29.132812h158.601562zm0 34.132813h-175.667968l17.066406-17.066406h158.601562zm-384-443.734375h460.796876v17.066406h-460.796876zm25.597657 34.132812h409.601562v349.867188h-34.132812v-187.730469c0-4.714844-3.820313-8.535156-8.535157-8.535156h-170.664062c-2.265625 0-4.433594.898437-6.035156 2.5l-28.101563 28.101562-28.097656-28.101562c-1.601563-1.601563-3.769531-2.5-6.035156-2.5h-128zm-34.132813 170.667969h158.601563l29.132812 29.132812v197.734376l-19.566406-19.566407c-1.601563-1.601562-3.769531-2.5-6.035156-2.5h-162.132813zm0 0" fill="#006DF0"/><path d="m42.667969 349.867188h136.53125v17.066406h-136.53125zm0 0" fill="#006DF0"/><path d="m42.667969 315.734375h136.53125v17.066406h-136.53125zm0 0" fill="#006DF0"/><path d="m59.734375 281.601562h17.066406v17.066407h-17.066406zm0 0" fill="#006DF0"/>
    <path d="m93.867188 281.601562h85.332031v17.066407h-85.332031zm0 0" fill="#006DF0"/>
    <path d="m42.667969 384h136.53125v17.066406h-136.53125zm0 0" fill="#006DF0"/>
    <path d="m42.667969 418.132812h102.398437v17.066407h-102.398437zm0 0" fill="#006DF0"/>
    <path d="m264.53125 349.867188h17.070312v17.066406h-17.070312zm0 0" fill="#006DF0"/>
    <path d="m298.667969 349.867188h85.332031v17.066406h-85.332031zm0 0" fill="#006DF0"/>
    <path d="m247.46875 384h136.53125v17.066406h-136.53125zm0 0" fill="#006DF0"/>
    <path d="m247.46875 418.132812h102.398438v17.066407h-102.398438zm0 0" fill="#006DF0"/>
    <path d="m247.46875 290.132812v34.132813c0 4.714844 3.820312 8.535156 8.53125 8.535156h128c4.714844 0 8.535156-3.820312 8.535156-8.535156v-34.132813c0-4.710937-3.820312-8.53125-8.535156-8.53125h-128c-4.714844 0-8.53125 3.820313-8.53125 8.53125zm17.0625 8.535157h110.933594v17.066406h-110.933594zm0 0" fill="#006DF0"/>
    <path d="m196.265625 196.265625h-17.066406v-42.664063h-17.066407v42.664063h-17.066406v-85.332031h-17.066406v85.332031h-17.066406v-59.730469h-17.066406v59.730469h-17.066407v17.066406h119.464844zm0 0" fill="#006DF0"/>
    <path d="m264.53125 213.332031c28.277344 0 51.203125-22.921875 51.203125-51.199219 0-28.277343-22.925781-51.199218-51.203125-51.199218-28.273438 0-51.199219 22.921875-51.199219 51.199218.03125 28.265626 22.9375 51.171876 51.199219 51.199219zm20.15625-23.796875-7.550781-18.867187h20.316406c-1.960937 7.566406-6.46875 14.226562-12.765625 18.867187zm12.769531-35.933594h-24.390625v-24.390624c11.941406 3.125 21.265625 12.449218 24.390625 24.390624zm-41.457031-24.390624v32.921874c.007812 1.085938.226562 2.15625.640625 3.160157l12.160156 30.539062c-1.410156.234375-2.835937.378907-4.265625.433594-18.8125.023437-34.085937-15.207031-34.109375-34.019531-.019531-15.5625 10.507813-29.15625 25.574219-33.035156zm0 0" fill="#006DF0"/>
    <path d="m384 213.332031c28.277344 0 51.199219-22.921875 51.199219-51.199219 0-28.277343-22.921875-51.199218-51.199219-51.199218s-51.199219 22.921875-51.199219 51.199218c.027344 28.265626 22.933594 51.171876 51.199219 51.199219zm8.535156-18.277343v-24.386719h24.386719c-3.121094 11.941406-12.449219 21.265625-24.386719 24.386719zm-8.535156-67.054688c15.515625.058594 29.042969 10.574219 32.921875 25.601562h-32.921875c-4.710938 0-8.535156 3.820313-8.535156 8.53125v32.921876c-18.21875-4.6875-29.1875-23.261719-24.496094-41.480469 3.878906-15.066407 17.472656-25.59375 33.03125-25.574219zm0 0" fill="#006DF0"/></svg>
